<?xml version="1.0" encoding="UTF-8" standalone="no"?>
<!-- Generator: Adobe Illustrator 19.0.0, SVG Export Plug-In . SVG Version: 6.00 Build 0)  -->

<svg
   xmlns:dc="http://purl.org/dc/elements/1.1/"
   xmlns:cc="http://creativecommons.org/ns#"
   xmlns:rdf="http://www.w3.org/1999/02/22-rdf-syntax-ns#"
   xmlns:svg="http://www.w3.org/2000/svg"
   xmlns="http://www.w3.org/2000/svg"
   xmlns:sodipodi="http://sodipodi.sourceforge.net/DTD/sodipodi-0.dtd"
   xmlns:inkscape="http://www.inkscape.org/namespaces/inkscape"
   version="1.1"
   id="Layer_1"
   x="0px"
   y="0px"
   viewBox="0 0 512 512"
   style="enable-background:new 0 0 512 512;"
   xml:space="preserve"
   inkscape:version="0.91 r13725"
   sodipodi:docname="layout.svg"><metadata
     id="metadata85"><rdf:RDF><cc:Work
         rdf:about=""><dc:format>image/svg+xml</dc:format><dc:type
           rdf:resource="http://purl.org/dc/dcmitype/StillImage" /></cc:Work></rdf:RDF></metadata><defs
     id="defs83" /><sodipodi:namedview
     pagecolor="#ffffff"
     bordercolor="#666666"
     borderopacity="1"
     objecttolerance="10"
     gridtolerance="10"
     guidetolerance="10"
     inkscape:pageopacity="0"
     inkscape:pageshadow="2"
     inkscape:window-width="1600"
     inkscape:window-height="837"
     id="namedview81"
     showgrid="false"
     inkscape:zoom="0.65186406"
     inkscape:cx="324.63194"
     inkscape:cy="294.53267"
     inkscape:window-x="-8"
     inkscape:window-y="-8"
     inkscape:window-maximized="1"
     inkscape:current-layer="Layer_1" /><g
     id="g3"><rect
       x="142.222"
       y="265.481"
       style="fill:#37abc8"
       width="104.296"
       height="104.296"
       id="rect5" /><rect
       x="18.963"
       y="142.222"
       style="fill:#ffffff"
       width="104.296"
       height="104.296"
       id="rect7" /></g><g
     id="g9"><rect
       x="18.963"
       y="265.481"
       style="fill:#ffffff"
       width="104.296"
       height="104.296"
       id="rect11" /><rect
       x="265.481"
       y="265.481"
       style="fill:#ffffff"
       width="104.296"
       height="104.296"
       id="rect13" /></g><rect
     x="388.741"
     y="265.481"
     style="fill:#ffffff"
     width="104.296"
     height="104.296"
     id="rect15" /><g
     id="g17"><rect
       x="142.222"
       y="142.222"
       style="fill:#37abc8"
       width="104.296"
       height="104.296"
       id="rect19" /><rect
       x="388.741"
       y="142.222"
       style="fill:#ffffff"
       width="104.296"
       height="104.296"
       id="rect21" /><path
       style="fill:#000000"
       d="M 6.1947819,510.78434 C 4.9162454,510.26838 3.085737,508.72631 2.1269853,507.3575 0.53817868,505.08916 0.38380048,482.79055 0.38380048,255.56929 l 0,-249.2994735 2.66255782,-2.6625577 2.6625577,-2.66255786 250.546854,0 250.54684,0 2.24822,2.85815186 2.24822,2.8581518 0,249.7911854 0,249.79118 -3.33746,2.8083 -3.33746,2.80829 -248.05238,-0.0688 C 119.75621,511.75327 7.4769427,511.30176 6.1947819,510.78434 Z m 117.8500381,-69.97523 0,-52.61017 -52.610172,0 -52.61017,0 0,52.61017 0,52.61017 52.61017,0 52.610172,0 0,-52.61017 z m 122.57627,0 0,-52.61017 -52.61017,0 -52.61017,0 0,52.61017 0,52.61017 52.61017,0 52.61017,0 0,-52.61017 z m 123.66102,0 0,-52.61017 -52.61017,0 -52.61017,0 0,52.61017 0,52.61017 52.61017,0 52.61017,0 0,-52.61017 z m 123.66101,0 0,-52.61017 -52.61017,0 -52.61017,0 0,52.61017 0,52.61017 52.61017,0 52.61017,0 0,-52.61017 z m -370.15908,-123.38983 -0.2816,-52.33899 -52.338978,-0.2816 -52.338984,-0.28161 0,52.6206 0,52.62058 52.620588,0 52.620594,0 -0.28162,-52.33898 z m 122.83705,-0.2816 0,-52.6206 -52.33898,0.28161 -52.33899,0.2816 -0.2816,52.33899 -0.28161,52.33898 52.6206,0 52.62058,0 0,-52.62058 z m 123.66102,0.0108 0,-52.61016 -52.61017,0 -52.61017,0 0,52.61016 0,52.61017 52.61017,0 52.61017,0 0,-52.61017 z m 123.40024,0.27119 -0.2816,-52.33898 -52.33898,-0.2816 -52.33899,-0.28161 0,52.62059 0,52.62058 52.62059,0 52.62059,0 -0.28161,-52.33898 z m -369.63753,-122.84789 0,-52.61017 -52.610172,0 -52.61017,0 0,52.61017 0,52.61017 52.61017,0 52.610172,0 0,-52.61017 z m 122.57627,0 0,-52.61017 -52.61017,0 -52.61017,0 0,52.61017 0,52.61017 52.61017,0 52.61017,0 0,-52.61017 z m 123.66102,0 0,-52.61017 -52.61017,0 -52.61017,0 0,52.61017 0,52.61017 52.61017,0 52.61017,0 0,-52.61017 z m 123.66101,0 0,-52.61017 -52.61017,0 -52.61017,0 0,52.61017 0,52.61017 52.61017,0 52.61017,0 0,-52.61017 z m -369.8983,-123.661017 0,-52.61017 -52.610172,0 -52.61017,0 0,52.61017 0,52.610167 52.61017,0 52.610172,0 0,-52.610167 z m 122.57627,0 0,-52.61017 -52.61017,0 -52.61017,0 0,52.61017 0,52.610167 52.61017,0 52.61017,0 0,-52.610167 z m 123.66102,0 0,-52.61017 -52.61017,0 -52.61017,0 0,52.61017 0,52.610167 52.61017,0 52.61017,0 0,-52.610167 z m 123.66101,0 0,-52.61017 -52.61017,0 -52.61017,0 0,52.61017 0,52.610167 52.61017,0 52.61017,0 0,-52.610167 z"
       id="path3421"
       inkscape:connector-curvature="0" /><path
       style="fill:#000000"
       d="M 6.1947819,510.78434 C 4.9162454,510.26838 3.085737,508.72631 2.1269853,507.3575 0.53818822,505.08918 0.38380048,482.80649 0.38380048,255.76488 l 0,-249.1038754 2.24822252,-2.8581518 2.2482226,-2.85815186 250.8508344,0 250.85082,0 2.35858,2.51059116 2.35857,2.5105911 0,250.1387468 0,250.13874 -3.33746,2.8083 -3.33746,2.80829 -248.05238,-0.0688 C 119.75621,511.75327 7.4769427,511.30176 6.1947819,510.78434 Z m 117.8500381,-69.97523 0,-52.61017 -52.610172,0 -52.61017,0 0,52.61017 0,52.61017 52.61017,0 52.610172,0 0,-52.61017 z m 122.57627,0 0,-52.61017 -52.61017,0 -52.61017,0 0,52.61017 0,52.61017 52.61017,0 52.61017,0 0,-52.61017 z m 123.66102,0 0,-52.61017 -52.61017,0 -52.61017,0 0,52.61017 0,52.61017 52.61017,0 52.61017,0 0,-52.61017 z m 123.66101,0 0,-52.61017 -52.61017,0 -52.61017,0 0,52.61017 0,52.61017 52.61017,0 52.61017,0 0,-52.61017 z m -369.8983,-122.95504 0,-51.90419 -10.57627,-0.70037 c -5.81695,-0.3852 -29.491529,-0.70289 -52.610173,-0.70598 l -42.033899,-0.006 0,52.61017 0,52.61017 52.61017,0 52.610172,0 0,-51.90419 z m 122.57627,-0.70598 0,-52.61017 -42.0339,0.005 c -23.11864,0.003 -46.79322,0.32078 -52.61017,0.70598 l -10.57627,0.70037 0,51.90418 0,51.9042 52.61017,0 52.61017,0 0,-52.61017 0,1.8e-4 z m 123.66102,0 0,-52.61017 -52.61017,0 -52.61017,0 0,52.61017 0,52.61017 52.61017,0 52.61017,0 0,-52.61017 z m 123.43937,1.17414 c -0.1764,-28.28981 -0.7273,-51.84235 -1.22423,-52.33898 -0.49692,-0.49662 -24.04946,-1.07259 -52.33898,-1.2799 l -51.43549,-0.37695 0,52.71593 0,52.71593 52.65971,0 52.65971,0 -0.32072,-51.43603 z m -369.67666,-123.75041 0,-52.61017 -52.610172,0 -52.61017,0 0,52.61017 0,52.61017 52.61017,0 52.610172,0 0,-52.61017 z m 122.57627,0 0,-52.61017 -52.61017,0 -52.61017,0 0,52.61017 0,52.61017 52.61017,0 52.61017,0 0,-52.61017 z m 123.66102,0 0,-52.61017 -52.61017,0 -52.61017,0 0,52.61017 0,52.61017 52.61017,0 52.61017,0 0,-52.61017 z m 123.66101,0 0,-52.61017 -52.61017,0 -52.61017,0 0,52.61017 0,52.61017 52.61017,0 52.61017,0 0,-52.61017 z m -369.8983,-123.661017 0,-52.61017 -52.610172,0 -52.61017,0 0,52.61017 0,52.610167 52.61017,0 52.610172,0 0,-52.610167 z m 122.57627,0 0,-52.61017 -52.61017,0 -52.61017,0 0,52.61017 0,52.610167 52.61017,0 52.61017,0 0,-52.610167 z m 123.66102,0 0,-52.61017 -52.61017,0 -52.61017,0 0,52.61017 0,52.610167 52.61017,0 52.61017,0 0,-52.610167 z m 123.66101,0 0,-52.61017 -52.61017,0 -52.61017,0 0,52.61017 0,52.610167 52.61017,0 52.61017,0 0,-52.610167 z"
       id="path3423"
       inkscape:connector-curvature="0" /><path
       style="fill:#000000"
       d="M 6.1947819,510.78434 C 4.9162454,510.26838 3.085737,508.72631 2.1269853,507.3575 0.53816371,505.08914 0.38380048,482.76577 0.38380048,255.26531 l 0,-249.6034532 2.51059112,-2.358578 2.5105911,-2.35857786 250.5884573,0 250.58846,0 2.35858,2.51059116 2.35857,2.5105911 0,249.9046268 0,249.90463 -2.9148,3.04241 -2.91481,3.04241 -248.47503,-0.0688 C 119.94115,511.75327 7.4769859,511.30178 6.1947819,510.78434 Z m 117.8500381,-69.97523 0,-52.61017 -52.610172,0 -52.61017,0 0,52.61017 0,52.61017 52.61017,0 52.610172,0 0,-52.61017 z m 122.57627,0 0,-52.61017 -52.61017,0 -52.61017,0 0,52.61017 0,52.61017 52.61017,0 52.61017,0 0,-52.61017 z m 123.66102,0 0,-52.61017 -52.61017,0 -52.61017,0 0,52.61017 0,52.61017 52.61017,0 52.61017,0 0,-52.61017 z m 123.66101,0 0,-52.61017 -52.61017,0 -52.61017,0 0,52.61017 0,52.61017 52.61017,0 52.61017,0 0,-52.61017 z M 124.04482,318.29686 c 0,-28.30377 -0.40843,-51.71383 -0.90763,-52.02236 -0.4992,-0.30852 -24.173776,-0.90346 -52.610173,-1.3221 l -51.702539,-0.76115 0,52.78351 0,52.7835 52.61017,0 52.610172,0 0,-51.4614 z m 122.57627,-1.3221 0,-52.78351 -51.70254,0.76115 c -28.4364,0.41864 -52.11097,1.01358 -52.61017,1.3221 -0.4992,0.30853 -0.90763,23.71859 -0.90763,52.02236 l 0,51.4614 52.61017,0 52.61017,0 0,-52.7835 z m 123.66102,0.17333 0,-52.61017 -52.61017,0 -52.61017,0 0,52.61017 0,52.61017 52.61017,0 52.61017,0 0,-52.61017 z m 123.46913,0.7155 -0.35049,-51.89467 -38.95705,-0.7155 c -21.42638,-0.39352 -44.97892,-0.7155 -52.33898,-0.7155 l -13.38194,0 0,52.61017 0,52.61017 52.68948,0 52.68947,0 -0.35049,-51.89467 z m -369.70642,-123.29177 0,-52.61017 -52.610172,0 -52.61017,0 0,52.61017 0,52.61017 52.61017,0 52.610172,0 0,-52.61017 z m 122.57627,0 0,-52.61017 -52.61017,0 -52.61017,0 0,52.61017 0,52.61017 52.61017,0 52.61017,0 0,-52.61017 z m 123.66102,0 0,-52.61017 -52.61017,0 -52.61017,0 0,52.61017 0,52.61017 52.61017,0 52.61017,0 0,-52.61017 z m 123.66101,0 0,-52.61017 -52.61017,0 -52.61017,0 0,52.61017 0,52.61017 52.61017,0 52.61017,0 0,-52.61017 z m -369.8983,-123.661017 0,-52.61017 -52.610172,0 -52.61017,0 0,52.61017 0,52.610167 52.61017,0 52.610172,0 0,-52.610167 z m 122.57627,0 0,-52.61017 -52.61017,0 -52.61017,0 0,52.61017 0,52.610167 52.61017,0 52.61017,0 0,-52.610167 z m 123.66102,0 0,-52.61017 -52.61017,0 -52.61017,0 0,52.61017 0,52.610167 52.61017,0 52.61017,0 0,-52.610167 z m 123.66101,0 0,-52.61017 -52.61017,0 -52.61017,0 0,52.61017 0,52.610167 52.61017,0 52.61017,0 0,-52.610167 z"
       id="path3425"
       inkscape:connector-curvature="0" /><path
       style="fill:#000000"
       d="M 6.1947819,510.78434 C 4.9162454,510.26838 3.085737,508.72631 2.1269853,507.3575 0.53818822,505.08918 0.38380048,482.80649 0.38380048,255.76488 l 0,-249.1038754 2.24822252,-2.8581518 2.2482226,-2.85815186 250.8508344,0 250.85082,0 2.35858,2.51059116 2.35857,2.5105911 -0.0345,249.9639868 c -0.0269,194.78193 -0.32623,250.34394 -1.35593,251.68511 -0.72679,0.94661 -2.38766,2.28898 -3.69081,2.98305 -2.86438,1.52557 -496.2487775,1.70942 -500.0230381,0.18631 z m 117.8500381,-69.97523 0,-52.61017 -52.610172,0 -52.61017,0 0,52.61017 0,52.61017 52.61017,0 52.610172,0 0,-52.61017 z m 122.57627,0 0,-52.61017 -52.61017,0 -52.61017,0 0,52.61017 0,52.61017 52.61017,0 52.61017,0 0,-52.61017 z m 123.66102,0 0,-52.61017 -52.61017,0 -52.61017,0 0,52.61017 0,52.61017 52.61017,0 52.61017,0 0,-52.61017 z m 123.66101,0 0,-52.61017 -52.61017,0 -52.61017,0 0,52.61017 0,52.61017 52.61017,0 52.61017,0 0,-52.61017 z m -370.05535,-123.11864 -0.38533,-52.06779 -21.24724,0 c -11.685993,-10e-6 -35.238535,-0.32266 -52.338988,-0.71701 l -31.091734,-0.71699 0,52.78479 0,52.78479 52.724307,0 52.724305,0 -0.38532,-52.06779 z m 122.73332,-0.717 0,-52.78479 -31.09173,0.71699 c -17.10046,0.39435 -40.653,0.71712 -52.33899,0.71726 l -21.24725,2.7e-4 -0.39522,52.06752 -0.39524,52.06754 52.73422,0 52.73421,0 0,-52.78479 z m 123.66102,0.17462 0,-52.61017 -52.61017,0 -52.61017,0 0,52.61017 0,52.61017 52.61017,0 52.61017,0 0,-52.61017 z m 123.41077,0.5445 -0.29213,-52.06568 -26.12943,-0.002 c -14.37119,-0.001 -37.92373,-0.32427 -52.33899,-0.71801 l -26.20955,-0.71581 0,52.78367 0,52.78367 52.63112,0 52.63112,0 -0.29214,-52.06567 z m -369.64806,-123.12077 0,-52.61017 -52.610172,0 -52.61017,0 0,52.61017 0,52.61017 52.61017,0 52.610172,0 0,-52.61017 z m 122.57627,0 0,-52.61017 -52.61017,0 -52.61017,0 0,52.61017 0,52.61017 52.61017,0 52.61017,0 0,-52.61017 z m 123.66102,0 0,-52.61017 -52.61017,0 -52.61017,0 0,52.61017 0,52.61017 52.61017,0 52.61017,0 0,-52.61017 z m 123.66101,0 0,-52.61017 -52.61017,0 -52.61017,0 0,52.61017 0,52.61017 52.61017,0 52.61017,0 0,-52.61017 z m -369.8983,-123.661017 0,-52.61017 -52.610172,0 -52.61017,0 0,52.61017 0,52.610167 52.61017,0 52.610172,0 0,-52.610167 z m 122.57627,0 0,-52.61017 -52.61017,0 -52.61017,0 0,52.61017 0,52.610167 52.61017,0 52.61017,0 0,-52.610167 z m 123.66102,0 0,-52.61017 -52.61017,0 -52.61017,0 0,52.61017 0,52.610167 52.61017,0 52.61017,0 0,-52.610167 z m 123.66101,0 0,-52.61017 -52.61017,0 -52.61017,0 0,52.61017 0,52.610167 52.61017,0 52.61017,0 0,-52.610167 z"
       id="path3427"
       inkscape:connector-curvature="0" /><path
       style="fill:#000000"
       d="M 6.1947819,510.78434 C 4.9162454,510.26838 3.085737,508.72631 2.1269853,507.3575 0.53818822,505.08918 0.38380048,482.80649 0.38380048,255.76488 l 0,-249.1038754 2.24822252,-2.8581518 2.2482226,-2.85815186 250.8508344,0 250.85082,0 2.35858,2.51059116 2.35857,2.5105911 0,249.6040768 c 0,137.28224 -0.30321,250.39426 -0.67382,251.36004 -1.98298,5.16757 10.20761,4.93468 -254.45875,4.86119 C 119.57889,511.75327 7.4769013,511.30175 6.1947819,510.78434 Z m 117.8500381,-69.97523 0,-52.61017 -52.610172,0 -52.61017,0 0,52.61017 0,52.61017 52.61017,0 52.610172,0 0,-52.61017 z m 122.57627,0 0,-52.61017 -52.61017,0 -52.61017,0 0,52.61017 0,52.61017 52.61017,0 52.61017,0 0,-52.61017 z m 123.66102,0 0,-52.61017 -52.61017,0 -52.61017,0 0,52.61017 0,52.61017 52.61017,0 52.61017,0 0,-52.61017 z m 123.66101,0 0,-52.61017 -52.61017,0 -52.61017,0 0,52.61017 0,52.61017 52.61017,0 52.61017,0 0,-52.61017 z m -370.05877,-123.11725 -0.38191,-52.06638 -31.999995,-0.004 c -17.6,-0.002 -41.152543,-0.32434 -52.338983,-0.71529 l -20.338984,-0.71082 0,52.78168 0,52.78168 52.720895,0 52.720897,0 -0.38192,-52.0664 z m 122.73674,-0.71528 0,-52.78168 -20.33898,0.71082 c -11.18644,0.39095 -34.73899,0.71324 -52.33899,0.71619 l -32,0.005 -0.40834,52.06549 -0.40833,52.06549 52.74731,0 52.74733,0 0,-52.78167 0,-6e-5 z m 123.66102,0.17151 0,-52.61017 -52.61017,0 -52.61017,0 0,52.61017 0,52.61017 52.61017,0 52.61017,0 0,-52.61017 z m 123.32553,0.54381 -0.20689,-52.06637 -35.25424,-0.005 c -19.38983,-0.003 -42.94237,-0.32392 -52.33898,-0.71364 l -17.08475,-0.70858 0,52.77999 0,52.78 52.54588,0 52.54588,0 -0.2069,-52.06636 0,3.8e-4 z m -369.56282,-123.12008 0,-52.61017 -52.610172,0 -52.61017,0 0,52.61017 0,52.61017 52.61017,0 52.610172,0 0,-52.61017 z m 122.57627,0 0,-52.61017 -52.61017,0 -52.61017,0 0,52.61017 0,52.61017 52.61017,0 52.61017,0 0,-52.61017 z m 123.66102,0 0,-52.61017 -52.61017,0 -52.61017,0 0,52.61017 0,52.61017 52.61017,0 52.61017,0 0,-52.61017 z m 123.66101,0 0,-52.61017 -52.61017,0 -52.61017,0 0,52.61017 0,52.61017 52.61017,0 52.61017,0 0,-52.61017 z m -369.8983,-123.661017 0,-52.61017 -52.610172,0 -52.61017,0 0,52.61017 0,52.610167 52.61017,0 52.610172,0 0,-52.610167 z m 122.57627,0 0,-52.61017 -52.61017,0 -52.61017,0 0,52.61017 0,52.610167 52.61017,0 52.61017,0 0,-52.610167 z m 123.66102,0 0,-52.61017 -52.61017,0 -52.61017,0 0,52.61017 0,52.610167 52.61017,0 52.61017,0 0,-52.610167 z m 123.66101,0 0,-52.61017 -52.61017,0 -52.61017,0 0,52.61017 0,52.610167 52.61017,0 52.61017,0 0,-52.610167 z"
       id="path3429"
       inkscape:connector-curvature="0" /></g><g
     id="g23"><rect
       x="265.481"
       y="142.222"
       style="fill:#ffffff"
       width="104.296"
       height="104.296"
       id="rect25" /><rect
       x="18.963"
       y="388.741"
       style="fill:#ffffff"
       width="104.296"
       height="104.296"
       id="rect27" /></g><g
     id="g29"><rect
       x="142.222"
       y="388.741"
       style="fill:#ffffff"
       width="104.296"
       height="104.296"
       id="rect31" /><rect
       x="388.741"
       y="388.741"
       style="fill:#37abc8"
       width="104.296"
       height="104.296"
       id="rect33" /></g><g
     id="g35"><rect
       x="265.481"
       y="388.741"
       style="fill:#ffffff"
       width="104.296"
       height="104.296"
       id="rect37" /><rect
       x="142.222"
       y="18.963"
       style="fill:#ffffff"
       width="104.296"
       height="104.296"
       id="rect39" /><rect
       x="388.741"
       y="18.963"
       style="fill:#ffffff"
       width="104.296"
       height="104.296"
       id="rect41" /></g><g
     id="g43"><rect
       x="265.481"
       y="18.963"
       style="fill:#37abc8"
       width="104.296"
       height="104.296"
       id="rect45" /><rect
       x="18.963"
       y="18.963"
       style="fill:#ffffff"
       width="104.296"
       height="104.296"
       id="rect47" /></g><path
     style="fill:#000000"
     d="M502.519,0H379.259H256H132.741H9.481C4.241,0,0,4.245,0,9.481v123.259V256v123.259v123.259  C0,507.755,4.241,512,9.481,512h123.259H256h123.259h123.259c5.241,0,9.481-4.245,9.481-9.481V379.259V256V132.741V9.481  C512,4.245,507.759,0,502.519,0z M493.037,246.519H388.741V142.222h104.296V246.519z M369.778,246.519H265.481V142.222h104.296  V246.519z M246.519,246.519H142.222V142.222h104.296V246.519z M123.259,246.519H18.963V142.222h104.296V246.519z M18.963,265.481  h104.296v104.296H18.963V265.481z M142.222,265.481h104.296v104.296H142.222V265.481z M265.481,265.481h104.296v104.296H265.481  V265.481z M388.741,265.481h104.296v104.296H388.741V265.481z M493.037,123.259H388.741V18.963h104.296V123.259z M369.778,123.259  H265.481V18.963h104.296V123.259z M246.519,123.259H142.222V18.963h104.296V123.259z M18.963,18.963h104.296v104.296H18.963V18.963z   M18.963,388.741h104.296v104.296H18.963V388.741z M142.222,388.741h104.296v104.296H142.222V388.741z M265.481,388.741h104.296  v104.296H265.481V388.741z M493.037,493.037H388.741V388.741h104.296V493.037z"
     id="path49" /><g
     id="g51" /><g
     id="g53" /><g
     id="g55" /><g
     id="g57" /><g
     id="g59" /><g
     id="g61" /><g
     id="g63" /><g
     id="g65" /><g
     id="g67" /><g
     id="g69" /><g
     id="g71" /><g
     id="g73" /><g
     id="g75" /><g
     id="g77" /><g
     id="g79" /></svg>